<?xml version="1.0" encoding="UTF-8"?>
<svg version="1.1" xmlns="http://www.w3.org/2000/svg" width="48" height="48">
<path d="M0 0 C1.32 0 2.64 0 4 0 C4 1.32 4 2.64 4 4 C4.721875 4.04125 5.44375 4.0825 6.1875 4.125 C10.04536489 5.32522463 11.97580184 7.6258974 14 11 C14.94743495 14.00500972 15.36804327 17.00314035 15.75 20.125 C15.97292287 21.71108338 16.19684693 23.29702643 16.421875 24.8828125 C16.51049805 25.57777832 16.59912109 26.27274414 16.69042969 26.98876953 C17.00544192 29.03535528 17.4676303 30.9999711 18 33 C18.66 33 19.32 33 20 33 C20 33.99 20 34.98 20 36 C15.38 36 10.76 36 6 36 C5.67 37.32 5.34 38.64 5 40 C3.02 40 1.04 40 -1 40 C-1.33 38.68 -1.66 37.36 -2 36 C-6.62 36 -11.24 36 -16 36 C-16 35.01 -16 34.02 -16 33 C-15.34 33 -14.68 33 -14 33 C-12.58428842 27.9438872 -11.76856906 23.09908752 -11.1875 17.875 C-10.3791964 11.98322453 -9.64836995 8.78355693 -5 5 C-2.1875 4.125 -2.1875 4.125 0 4 C0 2.68 0 1.36 0 0 Z " fill="#D0A22B" transform="translate(22,4)"/>
<path d="M0 0 C2.15749784 3.23624676 2.28360488 4.34394066 2.4140625 8.10546875 C2.45273437 9.08837891 2.49140625 10.07128906 2.53125 11.08398438 C2.5621875 12.10814453 2.593125 13.13230469 2.625 14.1875 C2.66367187 15.22326172 2.70234375 16.25902344 2.7421875 17.32617188 C2.83647869 19.88382027 2.91932918 22.44188578 3 25 C-2.28 25 -7.56 25 -13 25 C-12 21 -12 21 -11 19 C-10.83459132 15.86091078 -10.70336161 12.72896829 -10.65820312 9.5859375 C-10.51481261 6.19791976 -10.21634295 4.28678019 -8.15234375 1.55078125 C-5.26168401 -0.5319627 -3.48119685 -0.52974735 0 0 Z " fill="#FCD775" transform="translate(25,11)"/>
<path d="M0 0 C0.99 0 1.98 0 3 0 C3.10957031 0.90621094 3.21914063 1.81242188 3.33203125 2.74609375 C4.25700022 9.8525627 5.45742463 16.29684675 8 23 C7.01 23.33 6.02 23.66 5 24 C5 24.99 5 25.98 5 27 C4.01 27 3.02 27 2 27 C1.67 28.32 1.34 29.64 1 31 C-0.98 31 -2.96 31 -5 31 C-5.66 29.02 -6.32 27.04 -7 25 C-4 23 -4 23 2 23 C1.34 15.41 0.68 7.82 0 0 Z " fill="#E5BB4E" transform="translate(26,13)"/>
<path d="M0 0 C4.48887489 1.37160066 6.45261328 3.06827586 9 7 C9.85913872 9.98473547 10.2828953 12.98700784 10.6875 16.0625 C10.91941563 17.65772076 11.15245052 19.25277929 11.38671875 20.84765625 C11.48170654 21.54898682 11.57669434 22.25031738 11.67456055 22.97290039 C12.00341353 25.02126222 12.46832745 26.99561415 13 29 C13.66 29 14.32 29 15 29 C15 29.99 15 30.98 15 32 C11.37 32 7.74 32 4 32 C3.67 30.68 3.34 29.36 3 28 C6.465 27.505 6.465 27.505 10 27 C9.54625 26.113125 9.0925 25.22625 8.625 24.3125 C7.05464264 20.74284507 6.58817942 17.36131309 6.125 13.5 C5.3363005 7.60515114 3.91530176 4.43047305 0 0 Z " fill="#BF8E0F" transform="translate(27,8)"/>
<path d="M0 0 C8.06 -0.31 8.06 -0.31 11 2 C14.38565538 6.81804804 14.76744278 12.17675165 15.47265625 17.87890625 C15.97370942 20.84439874 16.77290171 23.26576025 18 26 C15.6875 26 15.6875 26 13 25 C9.23648957 18.14503458 9.31286509 10.68137742 9 3 C4.545 2.01 4.545 2.01 0 1 C0 0.67 0 0.34 0 0 Z " fill="#D3A630" transform="translate(20,10)"/>
<path d="M0 0 C0.33 0 0.66 0 1 0 C1.44457411 7.59069123 0.23503029 13.73615155 -2 21 C1.96 21 5.92 21 10 21 C9.01 22.32 8.02 23.64 7 25 C3.86328125 25.390625 3.86328125 25.390625 0.3125 25.25 C-1.45673828 25.19585937 -1.45673828 25.19585937 -3.26171875 25.140625 C-4.16535156 25.09421875 -5.06898438 25.0478125 -6 25 C-6 24.01 -6 23.02 -6 22 C-5.34 22 -4.68 22 -4 22 C-1.97287786 14.76027807 -0.98298062 7.44555532 0 0 Z " fill="#C08F0E" transform="translate(12,15)"/>
<path d="M0 0 C1.58700585 3.17401171 0.63416001 6.40026061 0.1875 9.8125 C0.10435547 10.52470703 0.02121094 11.23691406 -0.06445312 11.97070312 C-0.565913 15.92747779 -1.31412674 19.37928486 -3 23 C-3.66 23 -4.32 23 -5 23 C-4.49396008 20.83125748 -4.00016187 19.00032373 -3 17 C-2.76901279 13.80284373 -2.60514258 10.61286733 -2.48242188 7.41015625 C-2.21400469 2.21400469 -2.21400469 2.21400469 0 0 Z " fill="#EDC55C" transform="translate(17,13)"/>
<path d="M0 0 C2.64 0 5.28 0 8 0 C7.67 1.32 7.34 2.64 7 4 C5.02 4 3.04 4 1 4 C0.67 2.68 0.34 1.36 0 0 Z " fill="#B48919" transform="translate(20,40)"/>
<path d="M0 0 C-1.0625 2 -1.0625 2 -3 4 C-6.6875 4.25 -6.6875 4.25 -10 4 C-10 3.01 -10 2.02 -10 1 C-6.78548731 -0.60725635 -3.56387464 -0.05748185 0 0 Z " fill="#D0A229" transform="translate(22,36)"/>
<path d="M0 0 C0 0.99 0 1.98 0 3 C-2.64 3 -5.28 3 -8 3 C-7.67 2.01 -7.34 1.02 -7 0 C-4.3333581 -1.33332095 -2.83319697 -0.67102033 0 0 Z " fill="#F2C758" transform="translate(27,37)"/>
<path d="M0 0 C2.97 0.495 2.97 0.495 6 1 C5.01 1.495 5.01 1.495 4 2 C4 2.99 4 3.98 4 5 C2.02 5 0.04 5 -2 5 C-2 4.01 -2 3.02 -2 2 C-1.34 2 -0.68 2 0 2 C0 1.34 0 0.68 0 0 Z " fill="#B78505" transform="translate(8,35)"/>
</svg>
