<?xml version="1.0" encoding="UTF-8"?>
<svg version="1.1" xmlns="http://www.w3.org/2000/svg" width="50" height="50">
<path d="M0 0 C1.36560059 0.00303635 1.36560059 0.00303635 2.75878906 0.00613403 C3.68723633 0.00517731 4.61568359 0.00422058 5.57226562 0.00323486 C7.53938871 0.00255298 9.50651403 0.00440781 11.47363281 0.00857544 C14.49581932 0.01392358 17.51785721 0.00863071 20.54003906 0.00222778 C22.44628939 0.00288856 24.35253963 0.00416972 26.25878906 0.00613403 C27.16918945 0.0041098 28.07958984 0.00208557 29.01757812 0 C35.39383938 0.02399685 35.39383938 0.02399685 36.50878906 1.13894653 C36.59636909 3.13859635 36.61575482 5.14130763 36.60644531 7.14285278 C36.60322266 8.35779419 36.6 9.5727356 36.59667969 10.82449341 C36.58411133 12.74358521 36.58411133 12.74358521 36.57128906 14.70144653 C36.56677734 15.98470825 36.56226563 17.26796997 36.55761719 18.59011841 C36.54578452 21.77310676 36.52929975 24.95600416 36.50878906 28.13894653 C37.49878906 28.13894653 38.48878906 28.13894653 39.50878906 28.13894653 C38.63378906 33.01394653 38.63378906 33.01394653 37.50878906 34.13894653 C36.07688046 34.2422658 34.63996103 34.27744539 33.2043457 34.28421021 C32.28992203 34.29059006 31.37549835 34.29696991 30.43336487 34.30354309 C28.94122719 34.30521233 28.94122719 34.30521233 27.41894531 34.30691528 C26.40408554 34.31024368 25.38922577 34.31357208 24.34361267 34.31700134 C22.19237727 34.32207504 20.04113396 34.32440953 17.88989258 34.32424927 C14.58889871 34.32643487 11.28823931 34.3445836 7.98730469 34.36355591 C5.90201938 34.36648984 3.81673247 34.36847464 1.73144531 34.36941528 C0.73871109 34.3766008 -0.25402313 34.38378632 -1.27684021 34.39118958 C-2.19441605 34.38811295 -3.11199188 34.38503632 -4.05737305 34.38186646 C-4.86710068 34.38329147 -5.67682831 34.38471649 -6.51109314 34.38618469 C-8.49121094 34.13894653 -8.49121094 34.13894653 -10.49121094 32.13894653 C-10.49121094 30.81894653 -10.49121094 29.49894653 -10.49121094 28.13894653 C-9.50121094 28.13894653 -8.51121094 28.13894653 -7.49121094 28.13894653 C-7.49644775 27.32627319 -7.50168457 26.51359985 -7.50708008 25.67630005 C-7.52778088 22.01802331 -7.54084897 18.35975886 -7.55371094 14.70144653 C-7.5662793 12.78235474 -7.5662793 12.78235474 -7.57910156 10.82449341 C-7.58232422 9.609552 -7.58554688 8.3946106 -7.58886719 7.14285278 C-7.594104 6.01693726 -7.59934082 4.89102173 -7.60473633 3.73098755 C-7.38320431 -1.32708877 -4.35183185 0.01637797 0 0 Z M-5.49121094 4.13894653 C-5.80172935 6.43285084 -5.80172935 6.43285084 -5.75683594 9.07644653 C-5.75941406 10.05355591 -5.76199219 11.03066528 -5.76464844 12.03738403 C-5.75691406 13.06089966 -5.74917969 14.08441528 -5.74121094 15.13894653 C-5.74894531 16.16246216 -5.75667969 17.18597778 -5.76464844 18.24050903 C-5.76207031 19.21761841 -5.75949219 20.19472778 -5.75683594 21.20144653 C-5.75458008 22.0999231 -5.75232422 22.99839966 -5.75 23.92410278 C-5.69930036 26.34436818 -5.69930036 26.34436818 -3.49121094 28.13894653 C-0.78985771 28.33868387 1.80676118 28.41876226 4.50878906 28.40457153 C5.69601563 28.40744171 5.69601563 28.40744171 6.90722656 28.41036987 C8.58170896 28.41173171 10.25620191 28.40803535 11.93066406 28.39968872 C14.49861287 28.38898893 17.06586209 28.39958378 19.63378906 28.41238403 C21.25879061 28.41106244 22.88379172 28.40850004 24.50878906 28.40457153 C25.66507813 28.41064423 25.66507813 28.41064423 26.84472656 28.4168396 C31.14008343 28.53539364 31.14008343 28.53539364 34.50878906 26.13894653 C34.81930747 23.84504222 34.81930747 23.84504222 34.77441406 21.20144653 C34.77699219 20.22433716 34.77957031 19.24722778 34.78222656 18.24050903 C34.770625 16.7052356 34.770625 16.7052356 34.75878906 15.13894653 C34.76652344 14.11543091 34.77425781 13.09191528 34.78222656 12.03738403 C34.77835938 10.57171997 34.77835938 10.57171997 34.77441406 9.07644653 C34.7721582 8.17796997 34.76990234 7.27949341 34.76757812 6.35379028 C34.71687848 3.93352488 34.71687848 3.93352488 32.50878906 2.13894653 C29.80743583 1.9392092 27.21081695 1.8591308 24.50878906 1.87332153 C23.3215625 1.87045135 23.3215625 1.87045135 22.11035156 1.86752319 C20.43586916 1.86616136 18.76137621 1.86985772 17.08691406 1.87820435 C14.51896525 1.88890413 11.95171603 1.87830928 9.38378906 1.86550903 C7.75878751 1.86683063 6.1337864 1.86939302 4.50878906 1.87332153 C3.3525 1.86724884 3.3525 1.86724884 2.17285156 1.86105347 C-2.1225053 1.74249942 -2.1225053 1.74249942 -5.49121094 4.13894653 Z M-7.49121094 30.13894653 C-4.83050889 32.79964858 -2.83641415 32.38811198 0.78271484 32.4168396 C1.64106934 32.41279114 2.49942383 32.40874268 3.38378906 32.40457153 C4.26405762 32.40648499 5.14432617 32.40839844 6.05126953 32.41036987 C7.9140654 32.41173205 9.77687076 32.40803335 11.63964844 32.39968872 C14.49728642 32.3889896 17.35429572 32.39958285 20.21191406 32.41238403 C22.01920712 32.41106244 23.82649979 32.40850006 25.63378906 32.40457153 C26.9213208 32.41064423 26.9213208 32.41064423 28.23486328 32.4168396 C32.85103965 32.59388028 32.85103965 32.59388028 36.50878906 30.13894653 C21.98878906 30.13894653 7.46878906 30.13894653 -7.49121094 30.13894653 Z " fill="#000000" transform="translate(10.4912109375,7.861053466796875)"/>
<path d="M0 0 C1.32 0 2.64 0 4 0 C8 4.11111111 8 4.11111111 8 8 C7.4225 7.835 6.845 7.67 6.25 7.5 C3.73335631 6.85537969 3.73335631 6.85537969 0 7 C-1.63765786 8.52114235 -1.63765786 8.52114235 -3 10.5 C-4.4375 12.46875 -4.4375 12.46875 -6 14 C-7.32 14 -8.64 14 -10 14 C-11.75 12 -11.75 12 -13 10 C-15.56451085 11.09907608 -17.09554946 12.0984449 -19.0625 14.125 C-21 16 -21 16 -24 16 C-23.40024865 12.44947202 -22.02728246 10.45553003 -19.6875 7.75 C-19.09324219 7.04359375 -18.49898437 6.3371875 -17.88671875 5.609375 C-16 4 -16 4 -12 4 C-10.25 6 -10.25 6 -9 8 C-5.94259027 6.86762602 -4.42903607 5.40723311 -2.5 2.875 C-1.675 1.92625 -0.85 0.9775 0 0 Z " fill="#000000" transform="translate(33,15)"/>
</svg>
