<?xml version="1.0" encoding="UTF-8"?>
<svg version="1.1" xmlns="http://www.w3.org/2000/svg" width="50" height="50">
<path d="M0 0 C1.22264305 -0.0049926 1.22264305 -0.0049926 2.46998596 -0.01008606 C4.19751418 -0.01515867 5.92505223 -0.01749428 7.65258789 -0.01733398 C10.3017587 -0.01951917 12.95051241 -0.03766746 15.59960938 -0.05664062 C17.27473815 -0.05957469 18.94986892 -0.0615594 20.625 -0.0625 C21.42087021 -0.06968552 22.21674042 -0.07687103 23.03672791 -0.08427429 C28.65008398 -0.06085352 28.65008398 -0.06085352 30.87890625 2.16796875 C31.13769531 4.84179688 31.13769531 4.84179688 31.14453125 8.19921875 C31.14839844 10.00326172 31.14839844 10.00326172 31.15234375 11.84375 C31.14460938 13.10574219 31.136875 14.36773437 31.12890625 15.66796875 C31.14050781 17.56095703 31.14050781 17.56095703 31.15234375 19.4921875 C31.14976563 20.69488281 31.1471875 21.89757812 31.14453125 23.13671875 C31.14227539 24.24466797 31.14001953 25.35261719 31.13769531 26.49414062 C30.87890625 29.16796875 30.87890625 29.16796875 28.87890625 31.16796875 C27.88890625 31.16796875 26.89890625 31.16796875 25.87890625 31.16796875 C25.73453125 31.80734375 25.59015625 32.44671875 25.44140625 33.10546875 C24.87890625 35.16796875 24.87890625 35.16796875 23.87890625 36.16796875 C22.36432443 36.26444131 20.84575157 36.29995369 19.328125 36.30859375 C18.40193359 36.32792969 17.47574219 36.34726562 16.52148438 36.3671875 C14.5633553 36.40083678 12.6049008 36.41925504 10.64648438 36.421875 C4.88476376 36.43939412 4.88476376 36.43939412 0.3359375 39.65234375 C-0.38529297 40.89757813 -0.38529297 40.89757813 -1.12109375 42.16796875 C-3.8298871 43.52236543 -6.13042643 43.23298326 -9.12109375 43.16796875 C-8.54524943 40.78232798 -7.8988178 38.50114091 -7.12109375 36.16796875 C-8.06984375 36.20921875 -9.01859375 36.25046875 -9.99609375 36.29296875 C-13.12109375 36.16796875 -13.12109375 36.16796875 -15.12109375 34.16796875 C-15.37988281 31.49414062 -15.37988281 31.49414062 -15.38671875 28.13671875 C-15.38929687 26.93402344 -15.391875 25.73132813 -15.39453125 24.4921875 C-15.38679687 23.23019531 -15.3790625 21.96820312 -15.37109375 20.66796875 C-15.37882813 19.40597656 -15.3865625 18.14398437 -15.39453125 16.84375 C-15.39195313 15.64105469 -15.389375 14.43835938 -15.38671875 13.19921875 C-15.38446289 12.09126953 -15.38220703 10.98332031 -15.37988281 9.84179688 C-15.12109375 7.16796875 -15.12109375 7.16796875 -13.12109375 5.16796875 C-12.13109375 5.16796875 -11.14109375 5.16796875 -10.12109375 5.16796875 C-9.97671875 4.52859375 -9.83234375 3.88921875 -9.68359375 3.23046875 C-8.40927324 -1.44203978 -4.07660327 0.00568564 0 0 Z M-7.12109375 3.16796875 C-7.12109375 3.82796875 -7.12109375 4.48796875 -7.12109375 5.16796875 C-5.72032593 5.20555298 -5.72032593 5.20555298 -4.29125977 5.24389648 C-0.83784186 5.33883803 2.61539585 5.43808133 6.06860352 5.5402832 C7.56529894 5.58368688 9.06204564 5.62535788 10.55883789 5.6652832 C12.70604937 5.72285491 14.85300146 5.78658591 17 5.8515625 C18.94024048 5.90654907 18.94024048 5.90654907 20.91967773 5.96264648 C23.87890625 6.16796875 23.87890625 6.16796875 24.87890625 7.16796875 C25.03576874 8.72745417 25.12967264 10.29339543 25.1953125 11.859375 C25.23720703 12.80361328 25.27910156 13.74785156 25.32226562 14.72070312 C25.36158203 15.71392578 25.40089844 16.70714844 25.44140625 17.73046875 C25.48458984 18.72755859 25.52777344 19.72464844 25.57226562 20.75195312 C25.67870923 23.22381025 25.78072553 25.69577185 25.87890625 28.16796875 C26.53890625 28.16796875 27.19890625 28.16796875 27.87890625 28.16796875 C29.75967909 24.40642307 29.1069327 19.86973601 29.12890625 15.73046875 C29.14953125 14.76302734 29.17015625 13.79558594 29.19140625 12.79882812 C29.1965625 11.87005859 29.20171875 10.94128906 29.20703125 9.984375 C29.21637695 9.13302979 29.22572266 8.28168457 29.23535156 7.40454102 C29.02037026 5.1474953 29.02037026 5.1474953 27.79614258 3.38745117 C24.85605874 1.51737365 22.32783116 1.81444079 18.875 1.83984375 C17.8563662 1.8426535 17.8563662 1.8426535 16.81715393 1.84552002 C15.3839933 1.85223354 13.95085079 1.86613434 12.51782227 1.88671875 C10.32095362 1.9179042 8.12480255 1.9276936 5.92773438 1.93359375 C-0.80028646 1.58612757 -0.80028646 1.58612757 -7.12109375 3.16796875 Z M-12.03173828 8.39404297 C-13.44768983 10.69980361 -13.50871857 12.24913818 -13.51953125 14.94921875 C-13.52339844 15.87347656 -13.52726563 16.79773438 -13.53125 17.75 C-13.51964844 18.71292969 -13.50804687 19.67585938 -13.49609375 20.66796875 C-13.50769531 21.63089844 -13.51929688 22.59382813 -13.53125 23.5859375 C-13.52738281 24.51019531 -13.52351562 25.43445313 -13.51953125 26.38671875 C-13.51614746 27.23169922 -13.51276367 28.07667969 -13.50927734 28.94726562 C-13.03480335 31.66161497 -12.33632054 32.56323754 -10.12109375 34.16796875 C-6.99560358 34.41845511 -6.99560358 34.41845511 -4.12109375 34.16796875 C-4.12109375 35.81796875 -4.12109375 37.46796875 -4.12109375 39.16796875 C-3.13109375 38.83796875 -2.14109375 38.50796875 -1.12109375 38.16796875 C-0.38785579 36.15288517 -0.38785579 36.15288517 -0.12109375 34.16796875 C0.49934814 34.1836792 1.11979004 34.19938965 1.7590332 34.21557617 C4.56973153 34.27793089 7.38028437 34.31696023 10.19140625 34.35546875 C11.65610352 34.39317383 11.65610352 34.39317383 13.15039062 34.43164062 C14.55708008 34.44614258 14.55708008 34.44614258 15.9921875 34.4609375 C16.85626221 34.47664795 17.72033691 34.4923584 18.6105957 34.50854492 C20.91919771 34.33058416 20.91919771 34.33058416 22.65942383 32.94848633 C24.24164213 30.63835259 24.26617685 29.1752541 24.27734375 26.38671875 C24.28121094 25.46246094 24.28507812 24.53820312 24.2890625 23.5859375 C24.27746094 22.62300781 24.26585937 21.66007812 24.25390625 20.66796875 C24.26550781 19.70503906 24.27710938 18.74210937 24.2890625 17.75 C24.28519531 16.82574219 24.28132813 15.90148437 24.27734375 14.94921875 C24.27395996 14.10423828 24.27057617 13.25925781 24.26708984 12.38867188 C24.01578299 10.14637703 24.01578299 10.14637703 22.78955078 8.39404297 C19.86897415 6.51988812 17.35055204 6.7787419 13.91015625 6.76953125 C13.23343872 6.76666107 12.55672119 6.76379089 11.85949707 6.76083374 C10.43057416 6.75879478 9.00162323 6.76431306 7.57275391 6.77685547 C5.386409 6.79291364 3.20191246 6.77700341 1.015625 6.7578125 C-0.37370199 6.75979496 -1.76302784 6.76363871 -3.15234375 6.76953125 C-4.41626953 6.77291504 -5.68019531 6.77629883 -6.98242188 6.77978516 C-10.0529848 6.92973952 -10.0529848 6.92973952 -12.03173828 8.39404297 Z " fill="#000000" transform="translate(17.12109375,3.83203125)"/>
</svg>
