<?xml version="1.0" encoding="UTF-8"?>
<svg version="1.1" xmlns="http://www.w3.org/2000/svg" width="50" height="50">
<path d="M0 0 C0.94875 0.04125 1.8975 0.0825 2.875 0.125 C3.535 1.445 4.195 2.765 4.875 4.125 C15.435 4.125 25.995 4.125 36.875 4.125 C36.875 14.025 36.875 23.925 36.875 34.125 C31.21480523 34.17085216 25.55525189 34.21069491 19.89501953 34.23486328 C17.96856506 34.24493582 16.04212592 34.25859443 14.11572266 34.27587891 C11.35054748 34.30007241 8.585574 34.31147036 5.8203125 34.3203125 C4.9556839 34.33063507 4.0910553 34.34095764 3.20022583 34.35159302 C1.09046479 34.35199106 -1.01880718 34.24765243 -3.125 34.125 C-5.95759575 31.29240425 -5.38338261 29.3980534 -5.390625 25.4375 C-5.39253845 24.77919189 -5.3944519 24.12088379 -5.39642334 23.44262695 C-5.3977845 22.0506146 -5.39409283 20.65858953 -5.38574219 19.26660156 C-5.375041 17.13317411 -5.38563906 15.00058869 -5.3984375 12.8671875 C-5.39711589 11.51562314 -5.39455347 10.1640593 -5.390625 8.8125 C-5.38836914 7.57886719 -5.38611328 6.34523438 -5.38378906 5.07421875 C-5.01636206 0.88693742 -4.19446224 0.16777849 0 0 Z M-2.125 3.125 C-3.29926264 5.47352528 -3.24008173 6.86274065 -3.22265625 9.4765625 C-3.21943359 10.32734375 -3.21621094 11.178125 -3.21289062 12.0546875 C-3.20451172 12.94414062 -3.19613281 13.83359375 -3.1875 14.75 C-3.18298828 15.6471875 -3.17847656 16.544375 -3.17382812 17.46875 C-3.16202591 19.68756648 -3.14556155 21.90625018 -3.125 24.125 C-1.145 24.125 0.835 24.125 2.875 24.125 C2.90395976 21.00001937 2.92178483 17.8750731 2.9375 14.75 C2.95006836 13.41582031 2.95006836 13.41582031 2.96289062 12.0546875 C2.96611328 11.20390625 2.96933594 10.353125 2.97265625 9.4765625 C2.98051147 8.29827881 2.98051147 8.29827881 2.98852539 7.09619141 C3.00073953 5.04727332 3.00073953 5.04727332 1.875 3.125 C0.555 3.125 -0.765 3.125 -2.125 3.125 Z M4.875 6.125 C4.875 13.715 4.875 21.305 4.875 29.125 C3.885 29.125 2.895 29.125 1.875 29.125 C1.875 28.465 1.875 27.805 1.875 27.125 C0.555 27.125 -0.765 27.125 -2.125 27.125 C-2.125 28.445 -2.125 29.765 -2.125 31.125 C0.99454128 32.68477064 4.30459384 32.24604126 7.7265625 32.22265625 C8.50059418 32.2212413 9.27462585 32.21982635 10.07211304 32.21836853 C12.54811442 32.21276403 15.02402588 32.20021083 17.5 32.1875 C19.17708203 32.18248558 20.85416547 32.17792257 22.53125 32.17382812 C26.64589597 32.16364336 30.76034715 32.14406894 34.875 32.125 C34.875 23.545 34.875 14.965 34.875 6.125 C24.975 6.125 15.075 6.125 4.875 6.125 Z " fill="#000000" transform="translate(5.125,1.875)"/>
<path d="M0 0 C0.99 0 1.98 0 3 0 C3 9.9 3 19.8 3 30 C-10.2 30 -23.4 30 -37 30 C-37.33 29.01 -37.66 28.02 -38 27 C-18.695 27.495 -18.695 27.495 1 28 C0.67 18.76 0.34 9.52 0 0 Z " fill="#000000" transform="translate(47,14)"/>
<path d="M0 0 C0.99 0 1.98 0 3 0 C3 9.9 3 19.8 3 30 C-10.2 30 -23.4 30 -37 30 C-37.33 29.01 -37.66 28.02 -38 27 C-18.695 27.495 -18.695 27.495 1 28 C0.67 18.76 0.34 9.52 0 0 Z " fill="#000000" transform="translate(43,10)"/>
<path d="M0 0 C1.98 0 3.96 0 6 0 C6 1.98 6 3.96 6 6 C5.4225 6.103125 4.845 6.20625 4.25 6.3125 C1.67950842 7.09792798 0.06342716 8.30504197 -2 10 C-2.5775 9.67 -3.155 9.34 -3.75 9 C-6.19883862 7.72924102 -6.19883862 7.72924102 -10 8 C-12.22743787 9.41977909 -12.22743787 9.41977909 -14 11 C-14.66 10.01 -15.32 9.02 -16 8 C-14.88121617 6.82737096 -13.75476949 5.66204862 -12.625 4.5 C-11.68527344 3.52546875 -11.68527344 3.52546875 -10.7265625 2.53125 C-9 1 -9 1 -7 1 C-5.375 3 -5.375 3 -4 5 C-2.68 4.34 -1.36 3.68 0 3 C0 2.01 0 1.02 0 0 Z " fill="#000000" transform="translate(29,13)"/>
<path d="M0 0 C6.93 0 13.86 0 21 0 C21 0.66 21 1.32 21 2 C14.07 2 7.14 2 0 2 C0 1.34 0 0.68 0 0 Z " fill="#000000" transform="translate(14,27)"/>
</svg>
