<?xml version="1.0" encoding="UTF-8"?>
<svg version="1.1" xmlns="http://www.w3.org/2000/svg" width="50" height="50">
<path d="M0 0 C15.18 0 30.36 0 46 0 C46 3.3 46 6.6 46 10 C30.82 10 15.64 10 0 10 C0 6.7 0 3.4 0 0 Z M3 2 C2.67 3.65 2.34 5.3 2 7 C5.6464806 7.8410478 8.99950907 8.11764968 12.73828125 8.09765625 C14.33833008 8.09282227 14.33833008 8.09282227 15.97070312 8.08789062 C17.07349609 8.07951172 18.17628906 8.07113281 19.3125 8.0625 C20.99569336 8.05573242 20.99569336 8.05573242 22.71289062 8.04882812 C25.4753151 8.03707313 28.23762998 8.02064077 31 8 C31.33 6.35 31.66 4.7 32 3 C28.3535194 2.1589522 25.00049093 1.88235032 21.26171875 1.90234375 C19.66166992 1.90717773 19.66166992 1.90717773 18.02929688 1.91210938 C16.92650391 1.92048828 15.82371094 1.92886719 14.6875 1.9375 C13.00430664 1.94426758 13.00430664 1.94426758 11.28710938 1.95117188 C8.5246849 1.96292687 5.76237002 1.97935923 3 2 Z M34 2 C34 3.98 34 5.96 34 8 C37.3 8 40.6 8 44 8 C44 6.02 44 4.04 44 2 C40.7 2 37.4 2 34 2 Z " fill="#000000" transform="translate(2,20)"/>
<path d="M0 0 C15.18 0 30.36 0 46 0 C46 3.3 46 6.6 46 10 C30.82 10 15.64 10 0 10 C0 6.7 0 3.4 0 0 Z M3 2 C2.67 3.65 2.34 5.3 2 7 C5.83724172 7.90413673 9.37502274 8.10576898 13.3125 8.0625 C14.38113281 8.05347656 15.44976562 8.04445313 16.55078125 8.03515625 C17.76314453 8.01775391 17.76314453 8.01775391 19 8 C19.33 6.35 19.66 4.7 20 3 C16.16275828 2.09586327 12.62497726 1.89423102 8.6875 1.9375 C7.08455078 1.95103516 7.08455078 1.95103516 5.44921875 1.96484375 C4.64097656 1.97644531 3.83273438 1.98804688 3 2 Z M22 2 C22 3.98 22 5.96 22 8 C29.26 8 36.52 8 44 8 C44 6.02 44 4.04 44 2 C36.74 2 29.48 2 22 2 Z " fill="#000000" transform="translate(2,34)"/>
<path d="M0 0 C15.18 0 30.36 0 46 0 C46 3.3 46 6.6 46 10 C30.82 10 15.64 10 0 10 C0 6.7 0 3.4 0 0 Z M3 2 C2.67 3.65 2.34 5.3 2 7 C4.475 7.495 4.475 7.495 7 8 C7.33 6.35 7.66 4.7 8 3 C6.35 2.67 4.7 2.34 3 2 Z M10 2 C10 3.98 10 5.96 10 8 C21.22 8 32.44 8 44 8 C44 6.02 44 4.04 44 2 C32.78 2 21.56 2 10 2 Z " fill="#000000" transform="translate(2,6)"/>
<path d="M0 0 C0.66 0 1.32 0 2 0 C2 0.66 2 1.32 2 2 C1.34 2 0.68 2 0 2 C0 1.34 0 0.68 0 0 Z " fill="#000000" transform="translate(18,38)"/>
<path d="M0 0 C0.66 0 1.32 0 2 0 C2 0.66 2 1.32 2 2 C1.34 2 0.68 2 0 2 C0 1.34 0 0.68 0 0 Z " fill="#000000" transform="translate(12,38)"/>
<path d="M0 0 C0.66 0 1.32 0 2 0 C2 0.66 2 1.32 2 2 C1.34 2 0.68 2 0 2 C0 1.34 0 0.68 0 0 Z " fill="#000000" transform="translate(6,38)"/>
<path d="M0 0 C0.66 0 1.32 0 2 0 C2 0.66 2 1.32 2 2 C1.34 2 0.68 2 0 2 C0 1.34 0 0.68 0 0 Z " fill="#000000" transform="translate(30,24)"/>
<path d="M0 0 C0.66 0 1.32 0 2 0 C2 0.66 2 1.32 2 2 C1.34 2 0.68 2 0 2 C0 1.34 0 0.68 0 0 Z " fill="#000000" transform="translate(24,24)"/>
<path d="M0 0 C0.66 0 1.32 0 2 0 C2 0.66 2 1.32 2 2 C1.34 2 0.68 2 0 2 C0 1.34 0 0.68 0 0 Z " fill="#000000" transform="translate(18,24)"/>
<path d="M0 0 C0.66 0 1.32 0 2 0 C2 0.66 2 1.32 2 2 C1.34 2 0.68 2 0 2 C0 1.34 0 0.68 0 0 Z " fill="#000000" transform="translate(12,24)"/>
<path d="M0 0 C0.66 0 1.32 0 2 0 C2 0.66 2 1.32 2 2 C1.34 2 0.68 2 0 2 C0 1.34 0 0.68 0 0 Z " fill="#000000" transform="translate(6,24)"/>
<path d="M0 0 C0.66 0 1.32 0 2 0 C2 0.66 2 1.32 2 2 C1.34 2 0.68 2 0 2 C0 1.34 0 0.68 0 0 Z " fill="#000000" transform="translate(6,10)"/>
</svg>
