<?xml version="1.0" encoding="UTF-8"?>
<svg version="1.1" xmlns="http://www.w3.org/2000/svg" width="50" height="50">
<path d="M0 0 C2 1 2 1 3 3 C3.52899958 6.62742568 3.71661827 9.79306397 1.8125 13 C-0.55995679 14.30894168 -2.3335118 14.21620175 -5 14 C-5 14.66 -5 15.32 -5 16 C2.59 16 10.18 16 18 16 C18.061875 18.743125 18.12375 21.48625 18.1875 24.3125 C18.22846802 25.60281128 18.22846802 25.60281128 18.27026367 26.91918945 C18.27775635 27.60198975 18.28524902 28.28479004 18.29296875 28.98828125 C18.3086792 29.68477783 18.32438965 30.38127441 18.34057617 31.09887695 C17.89458345 33.58844351 16.96850392 34.46262449 15 36 C12.73828125 36.29296875 12.73828125 36.29296875 10.3125 36.1875 C9.10013672 36.14689453 9.10013672 36.14689453 7.86328125 36.10546875 C7.24839844 36.07066406 6.63351563 36.03585938 6 36 C5.731875 36.78375 5.46375 37.5675 5.1875 38.375 C4 41 4 41 1 43 C-3.76841307 43.69505682 -7.77765147 43.6485931 -12.0625 41.375 C-14 39 -14 39 -15 33 C-19.62 33 -24.24 33 -29 33 C-29 25.08 -29 17.16 -29 9 C-23.06 9 -17.12 9 -11 9 C-11 7.02 -11 5.04 -11 3 C-8.76451845 -1.1915279 -4.17722545 -0.60917871 0 0 Z M-8 4 C-8.04063832 5.66617115 -8.042721 7.33388095 -8 9 C-7.01 9 -6.02 9 -5 9 C-5 9.66 -5 10.32 -5 11 C-3.35 10.67 -1.7 10.34 0 10 C0.04254356 8.00045254 0.04080783 5.99958364 0 4 C-1.11836224 2.65595225 -1.11836224 2.65595225 -4 2.875 C-6.88163776 2.65595225 -6.88163776 2.65595225 -8 4 Z M-27 12 C-27.0983721 13.33043625 -27.13078592 14.66593344 -27.1328125 16 C-27.13410156 16.804375 -27.13539062 17.60875 -27.13671875 18.4375 C-27.13285156 19.283125 -27.12898438 20.12875 -27.125 21 C-27.12886719 21.845625 -27.13273437 22.69125 -27.13671875 23.5625 C-27.13542969 24.366875 -27.13414063 25.17125 -27.1328125 26 C-27.13168457 26.7425 -27.13055664 27.485 -27.12939453 28.25 C-27.18942216 30.02825811 -27.18942216 30.02825811 -26 31 C-24.66956375 31.0983721 -23.33406656 31.13078592 -22 31.1328125 C-21.195625 31.13410156 -20.39125 31.13539062 -19.5625 31.13671875 C-18.2940625 31.13091797 -18.2940625 31.13091797 -17 31.125 C-16.154375 31.12886719 -15.30875 31.13273437 -14.4375 31.13671875 C-13.633125 31.13542969 -12.82875 31.13414063 -12 31.1328125 C-10.88625 31.13112061 -10.88625 31.13112061 -9.75 31.12939453 C-7.97174189 31.18942216 -7.97174189 31.18942216 -7 30 C-6.9016279 28.66956375 -6.86921408 27.33406656 -6.8671875 26 C-6.86589844 25.195625 -6.86460938 24.39125 -6.86328125 23.5625 C-6.86908203 22.2940625 -6.86908203 22.2940625 -6.875 21 C-6.87113281 20.154375 -6.86726563 19.30875 -6.86328125 18.4375 C-6.86521484 17.2309375 -6.86521484 17.2309375 -6.8671875 16 C-6.86831543 15.2575 -6.86944336 14.515 -6.87060547 13.75 C-6.81057784 11.97174189 -6.81057784 11.97174189 -8 11 C-9.33043625 10.9016279 -10.66593344 10.86921408 -12 10.8671875 C-12.804375 10.86589844 -13.60875 10.86460938 -14.4375 10.86328125 C-15.283125 10.86714844 -16.12875 10.87101563 -17 10.875 C-17.845625 10.87113281 -18.69125 10.86726562 -19.5625 10.86328125 C-20.366875 10.86457031 -21.17125 10.86585937 -22 10.8671875 C-23.11375 10.86887939 -23.11375 10.86887939 -24.25 10.87060547 C-26.02825811 10.81057784 -26.02825811 10.81057784 -27 12 Z M-5 18 C-5 22.95 -5 27.9 -5 33 C-7.31 33 -9.62 33 -12 33 C-11.62120265 35.19702465 -11.09789619 36.83875922 -9.9375 38.75 C-6.81181859 40.76656865 -3.54556798 40.65049735 0 40 C3.23957778 37.67414928 4.32481487 35.84336149 5 32 C5.06831987 29.5842094 5.08487642 27.16665287 5.0625 24.75 C5.05347656 23.48671875 5.04445313 22.2234375 5.03515625 20.921875 C5.02355469 19.95765625 5.01195313 18.9934375 5 18 C1.7 18 -1.6 18 -5 18 Z M7 18 C6.97314588 20.31243792 6.95367159 22.6249627 6.9375 24.9375 C6.92589844 26.22527344 6.91429687 27.51304688 6.90234375 28.83984375 C6.63467451 31.86298403 6.63467451 31.86298403 8 33 C10.41482413 33.50059916 10.41482413 33.50059916 13 33 C16.06722832 29.82700519 16.17552563 26.90846649 16.1875 22.6875 C16.13958275 21.12448483 16.08187055 19.56160485 16 18 C13.03 18 10.06 18 7 18 Z " fill="#000000" transform="translate(31,4)"/>
<path d="M0 0 C2.64 0 5.28 0 8 0 C9.36952673 2.73905345 9.12621361 4.97087332 9 8 C8.67 8.66 8.34 9.32 8 10 C5.36 10 2.72 10 0 10 C-1.36952673 7.26094655 -1.12621361 5.02912668 -1 2 C-0.67 1.34 -0.34 0.68 0 0 Z M2 3 C2 4.32 2 5.64 2 7 C3.32 7 4.64 7 6 7 C6 5.68 6 4.36 6 3 C4.68 3 3.36 3 2 3 Z " fill="#000000" transform="translate(38,8)"/>
<path d="M0 0 C3.3 0 6.6 0 10 0 C10 0.66 10 1.32 10 2 C8.68 2 7.36 2 6 2 C6 5.3 6 8.6 6 12 C5.34 12 4.68 12 4 12 C4 8.7 4 5.4 4 2 C2.68 2 1.36 2 0 2 C0 1.34 0 0.68 0 0 Z " fill="#000000" transform="translate(9,19)"/>
</svg>
